<?xml version="1.0" encoding="UTF-8"?>
<svg version="1.1" xmlns="http://www.w3.org/2000/svg" width="80" height="80">
<path d="M0 0 C0.14914428 5.26517542 0.25758661 10.5291021 0.32958984 15.79589844 C0.35962642 17.58452798 0.40046952 19.3730119 0.45263672 21.16113281 C0.92976161 37.94470269 0.92976161 37.94470269 -2.8203125 43.01953125 C-4.38330078 44.62426758 -4.38330078 44.62426758 -6 46 C-6.56549561 46.5580835 -7.13099121 47.11616699 -7.71362305 47.69116211 C-12.5696379 52.4206258 -19.13015676 56.7581348 -26 57.1875 C-35.87739331 53.27769848 -45.89165401 46.57570338 -51 37 C-51.63266622 34.04793028 -51.58867979 31.23075314 -51.48828125 28.22265625 C-51.48120651 27.41130722 -51.47413177 26.59995819 -51.46684265 25.76402283 C-51.43905771 23.19587377 -51.37635566 20.6299796 -51.3125 18.0625 C-51.28739629 16.31188065 -51.26458676 14.56122681 -51.24414062 12.81054688 C-51.1892841 8.53950793 -51.10312803 4.270135 -51 0 C-32.37511338 -4.11635995 -18.62488662 -4.11635995 0 0 Z " fill="#D9DADB" transform="translate(65,13)"/>
<path d="M0 0 C1.22525391 0.23009766 2.45050781 0.46019531 3.71289062 0.69726562 C12.66145476 2.41145476 12.66145476 2.41145476 13.8125 3.5625 C13.94176568 4.97638461 14.00357031 6.39653274 14.03710938 7.81591797 C14.07088684 9.17401077 14.07088684 9.17401077 14.10534668 10.55953979 C14.17646884 14.74436279 14.23399579 18.92900157 14.27246094 23.11425781 C14.29894063 25.31207217 14.33972299 27.50976541 14.39550781 29.70703125 C14.97869442 52.95017926 14.97869442 52.95017926 6.8125 61.5625 C6.2565918 62.22475586 5.70068359 62.88701172 5.12792969 63.56933594 C-0.564046 70.2106174 -10.52489554 76.73670352 -19.1875 78 C-29.25652686 77.80921844 -39.59057218 68.24599896 -46.26171875 61.44921875 C-47.98656162 59.52911065 -49.63565405 57.62476743 -51.1875 55.5625 C-51.70683105 54.91925781 -52.22616211 54.27601562 -52.76123047 53.61328125 C-54.89451247 49.05020492 -54.55731676 44.76729666 -54.48046875 39.79296875 C-54.47622391 38.75682938 -54.47197906 37.72069 -54.46760559 36.65315247 C-54.45084605 33.35183458 -54.4131981 30.05113263 -54.375 26.75 C-54.35994967 24.50847237 -54.34626188 22.26693515 -54.33398438 20.02539062 C-54.30095148 14.53755114 -54.25077893 9.05006958 -54.1875 3.5625 C-48.69161101 1.65535566 -43.27178038 0.48900457 -37.5625 -0.5625 C-36.64082031 -0.74425781 -35.71914063 -0.92601563 -34.76953125 -1.11328125 C-22.72992897 -3.3403565 -11.95489826 -2.36491993 0 0 Z M-48.1875 6.5625 C-51.2078366 9.5828366 -49.60348998 20.80710468 -49.64746094 25.08789062 C-49.6739642 27.05688946 -49.71477397 29.0257523 -49.77050781 30.99414062 C-50.61812076 43.75991542 -50.61812076 43.75991542 -45.91015625 55.1484375 C-44.04759728 57.0386408 -44.04759728 57.0386408 -42.1875 58.5625 C-41.47464844 59.34882812 -40.76179688 60.13515625 -40.02734375 60.9453125 C-33.93633227 66.52352835 -27.25523731 71.49021621 -19.1875 73.5625 C-10.57999643 71.99369619 -2.87817844 64.9432441 2.8125 58.5625 C3.34343262 58.05420654 3.87436523 57.54591309 4.42138672 57.0222168 C11.35919655 49.04465563 9.44858705 37.88436177 9.1875 28 C9.15736819 26.01761854 9.12999806 24.03519307 9.10546875 22.05273438 C9.03971534 17.22156062 8.93637107 12.39251883 8.8125 7.5625 C-10.66381173 0.89746155 -28.37523942 0.86404148 -48.1875 6.5625 Z " fill="#D9DADB" transform="translate(60.1875,2.4375)"/>
</svg>
